<svg width="32" height="32" viewBox="0 0 32 32" fill="none" xmlns="http://www.w3.org/2000/svg">
<g clip-path="url(#clip0_9_56)">
<path d="M0 22.9849V19.7487C0.110553 19.6382 0.080402 19.4874 0.100503 19.3568C0.309605 17.788 0.72527 16.2538 1.33668 14.794C3.2319 10.2511 6.42779 6.36986 10.5226 3.63819C13.0769 1.83518 16.0089 0.638969 19.0955 0.140704C19.3365 0.136372 19.5748 0.0887116 19.799 0H22.9849C23.1859 0.160804 23.4271 0.120603 23.6583 0.160804C24.5943 0.333817 25.5056 0.620705 26.3719 1.01508C26.5145 1.0559 26.6402 1.14137 26.7307 1.25896C26.8211 1.37654 26.8715 1.52003 26.8744 1.66834C26.8738 1.81759 26.8228 1.96226 26.7298 2.07898C26.6368 2.1957 26.5071 2.27764 26.3618 2.31156H26.2312C23.1336 3.59238 20.3798 5.58204 18.191 8.1206C16.0219 10.693 14.7423 13.8974 14.5427 17.2563C14.4635 18.4048 14.174 19.529 13.6884 20.5729C12.9243 22.1638 11.8113 23.562 10.4322 24.6633C8.58557 26.2058 6.43516 27.3427 4.1206 28C3.56784 28.1604 2.97678 28.1261 2.44626 27.9029C1.91574 27.6797 1.47792 27.2812 1.20603 26.7739C0.717294 25.8446 0.378122 24.844 0.201005 23.809C0.179879 23.5251 0.111962 23.2467 0 22.9849Z" fill="#F3F3F3"/>
<path d="M32 9.07538V12.0905C31.9196 12.1608 31.9397 12.2513 31.9296 12.3417C31.6765 14.3715 31.0961 16.3468 30.211 18.191C28.4234 21.9592 25.7259 25.2232 22.3618 27.6884C19.6997 29.7125 16.6029 31.0889 13.3166 31.7085C12.9101 31.7453 12.507 31.8125 12.1105 31.9096H9.04521C8.91054 31.8333 8.7577 31.7951 8.603 31.799C7.55747 31.643 6.54118 31.3313 5.58792 30.8744C5.47357 30.8301 5.37607 30.751 5.30931 30.6481C5.24255 30.5453 5.20992 30.424 5.21606 30.3015C5.21014 30.1765 5.24259 30.0527 5.30906 29.9467C5.37553 29.8408 5.47284 29.7576 5.58792 29.7085L5.85928 29.608C8.41804 28.7123 10.7577 27.2838 12.7236 25.4171C14.4428 23.8127 15.6846 21.7639 16.3115 19.4975C16.5242 18.4794 16.6719 17.4489 16.7538 16.4121C17.1166 13.464 18.4495 10.7204 20.5427 8.61307C22.5124 6.64182 24.8706 5.10168 27.4673 4.09045C27.7913 3.95167 28.1399 3.87935 28.4924 3.87779C28.8449 3.87622 29.1941 3.94545 29.5193 4.08135C29.8446 4.21725 30.1392 4.41707 30.3858 4.66896C30.6323 4.92085 30.8258 5.21968 30.9548 5.54774C31.3727 6.44605 31.6701 7.39564 31.8392 8.37186C31.8461 8.61465 31.9007 8.85371 32 9.07538Z" fill="#F3F3F3"/>
</g>
<defs>
<clipPath id="clip0_9_56">
<rect width="32" height="32" fill="white"/>
</clipPath>
</defs>
</svg>
