<svg xmlns="http://www.w3.org/2000/svg" width="1em" height="1em" viewBox="0 0 128 128">
	<path d="M0 0h128v128H0z" fill="none" />
	<path fill="#00dc82" d="M71.679 106.667h47.359c1.514 0 2.962-.533 4.268-1.283c1.307-.75 2.66-1.688 3.415-2.986S128 99.629 128 98.134s-.524-2.971-1.279-4.268l-32-55.038c-.755-1.297-1.68-2.24-2.99-2.991c-1.312-.751-3.18-1.279-4.695-1.279c-1.514 0-2.957.533-4.263 1.279s-2.232 1.693-2.987 2.991l-8.108 14.08l-16.213-27.311c-.755-1.297-1.68-2.66-2.986-3.41s-2.755-.854-4.269-.854s-2.957.104-4.264.854c-1.306.75-2.66 2.113-3.415 3.41L.854 93.864C.099 95.161 0 96.634 0 98.134s.099 2.966.854 4.263c.754 1.297 2.103 2.24 3.415 2.986c1.311.747 2.754 1.284 4.264 1.284H38.4c11.835 0 20.449-5.31 26.453-15.364l14.505-25.17l7.678-13.226l23.468 40.104H79.359ZM37.97 93.01H17.066l31.147-53.76L64 66.134L53.543 84.361c-3.986 6.523-8.533 8.65-15.572 8.65zm0 0" />
</svg>
