<svg width="24" height="24" viewBox="0 0 24 24" fill="none" xmlns="http://www.w3.org/2000/svg">
<path d="M13.7531 23.6549C13.7891 23.5735 13.88 23.5169 13.946 23.4484C14.953 22.3925 15.9686 21.3461 16.9619 20.2773C17.2727 19.9903 17.5129 19.6352 17.6637 19.2398C17.8144 18.8445 17.8717 18.4196 17.8309 17.9985C17.7997 17.8181 17.7588 17.6396 17.7084 17.4637C17.4375 17.7208 17.1856 17.9547 16.9319 18.1904C16.5376 18.5572 16.1451 18.9258 15.7475 19.2883C15.513 19.5274 15.2115 19.6897 14.8828 19.7538C14.5541 19.8179 14.2137 19.7808 13.9065 19.6474C13.5956 19.5332 13.3251 19.3301 13.1285 19.0635C12.932 18.7969 12.8181 18.4784 12.8009 18.1476C12.7917 18.105 12.7794 18.0632 12.7641 18.0225C12.4616 18.2796 12.1719 18.5161 11.8848 18.7595L5.91719 23.8161C5.87606 23.8512 5.83149 23.8949 5.79292 23.9292H13.7488L13.7368 23.9215C13.694 23.8915 13.7163 23.7338 13.7531 23.6549V23.6549ZM5.42868 23.6549C5.49945 23.5628 5.58486 23.4829 5.68151 23.4184L13.94 16.4121C14.5033 15.9338 15.0641 15.453 15.6223 14.9697C15.6913 14.9216 15.7454 14.8551 15.7783 14.7777C15.9118 14.1958 15.9308 13.5936 15.834 13.0045C15.7483 13.0645 15.702 13.0902 15.6626 13.1322C14.9864 13.7372 14.3136 14.3475 13.634 14.9491C13.4089 15.1757 13.1177 15.3251 12.8023 15.3757C12.4869 15.4264 12.1636 15.3757 11.8788 15.2311C11.5882 15.0939 11.3451 14.8734 11.1802 14.5976C11.0154 14.3218 10.9364 14.0032 10.9532 13.6824V13.4047C10.8289 13.4956 10.7381 13.5564 10.6532 13.625C7.34788 16.2715 4.04313 18.9161 0.738952 21.5586C0.589827 21.6777 0.411563 21.9434 0.216157 21.6854C0.0207518 21.4275 0.318145 21.3212 0.468127 21.2012C3.99057 18.3747 7.51472 15.5507 11.0406 12.7294C11.6148 12.2691 11.6525 12.0763 11.2788 11.3452L11.056 11.5544C10.4449 12.1226 9.82702 12.6831 9.22537 13.2607C8.97858 13.4988 8.66949 13.6622 8.33379 13.732C7.99809 13.8019 7.64947 13.7754 7.3282 13.6556C7.00692 13.5358 6.72608 13.3275 6.51811 13.0549C6.31015 12.7823 6.18353 12.4564 6.15288 12.1149C6.03889 12.2006 5.94033 12.2631 5.84692 12.336L0.618966 16.3881C0.528799 16.4765 0.42597 16.551 0.31386 16.6092C0.229247 16.6348 0.138387 16.6302 0.0567474 16.5963V23.9335H5.4184C5.39846 23.8894 5.38902 23.8413 5.3908 23.793C5.39259 23.7447 5.40555 23.6974 5.42868 23.6549V23.6549Z" fill="#FFD459"/>
<path d="M19.9127 0.3631C19.767 0.840472 19.6256 1.3187 19.4979 1.80122C19.3799 2.1422 19.3936 2.51495 19.5363 2.84633C19.679 3.17772 19.9404 3.44382 20.2692 3.59243C21.2749 4.12105 22.4081 4.35851 23.5414 4.27806V0.444519C23.5288 0.360469 23.5335 0.274736 23.5551 0.192549C23.5791 0.146059 23.6094 0.103091 23.6451 0.0648499H19.9092C19.9667 0.131699 19.9469 0.249114 19.9127 0.3631V0.3631Z" fill="#ED95D6"/>
<path d="M12.4093 8.59843C12.3915 9.02632 12.2418 9.43824 11.9807 9.77772C11.0474 10.9825 9.97563 12.0733 8.78741 13.0276C8.5958 13.205 8.35293 13.3171 8.09365 13.3479C7.83436 13.3787 7.57199 13.3266 7.34416 13.199C7.11739 13.1021 6.92619 12.9374 6.79682 12.7275C6.66745 12.5175 6.60627 12.2727 6.62167 12.0266C6.64912 11.7243 6.77462 11.4393 6.97906 11.215C8.30776 9.94802 9.74735 8.80272 11.2805 7.79281C11.381 7.71407 11.5036 7.66889 11.6311 7.66366C11.7586 7.65843 11.8845 7.69342 11.991 7.76367C12.131 7.85061 12.2442 7.97462 12.3181 8.12197C12.3919 8.26932 12.4235 8.43423 12.4093 8.59843V8.59843ZM11.3825 13.793C11.3626 13.6035 11.387 13.412 11.4536 13.2336C11.5202 13.0551 11.6273 12.8946 11.7665 12.7645C13.0675 11.5646 14.4633 10.4717 15.9403 9.49661C15.9848 9.46832 16.026 9.44004 16.0748 9.4109C16.2039 9.31776 16.3602 9.27016 16.5192 9.27559C16.6782 9.28102 16.8309 9.33918 16.9533 9.4409C17.0717 9.54119 17.1555 9.67625 17.1927 9.82688C17.2299 9.97751 17.2187 10.136 17.1607 10.2799C16.9738 10.9023 16.629 11.4657 16.1597 11.9152C15.2066 12.8541 14.2351 13.7742 13.2457 14.6748C13.0967 14.8281 12.901 14.9274 12.6894 14.9572C12.4778 14.987 12.2622 14.9455 12.0767 14.8394C11.8818 14.7381 11.7158 14.5889 11.5944 14.4059C11.473 14.2228 11.4001 14.0119 11.3825 13.793V13.793ZM17.5669 14.3595C17.327 14.6166 17.0801 14.8617 16.8496 15.1248C16.7803 15.2265 16.7228 15.3358 16.6782 15.4505C16.805 15.4882 16.9533 15.5876 17.0561 15.5525C17.5798 15.3768 18.0906 15.1659 18.6657 14.944C18.5405 15.2319 18.4463 15.4976 18.3134 15.741C17.7662 16.6607 17.0808 17.4909 16.2814 18.2024C15.9774 18.4955 15.6617 18.7758 15.3344 19.0432C15.161 19.1871 14.9525 19.2823 14.7302 19.3192C14.508 19.356 14.2799 19.3332 14.0694 19.253C13.8588 19.1728 13.6734 19.0381 13.532 18.8627C13.3906 18.6873 13.2983 18.4775 13.2646 18.2547C13.2509 18.1309 13.2618 18.0055 13.2968 17.8859C13.3318 17.7663 13.3902 17.6548 13.4686 17.5579C14.6349 16.2914 15.9677 15.1892 17.4307 14.2815C17.4485 14.2746 17.4673 14.2708 17.4864 14.2703L17.5669 14.3595Z" fill="#ED95D6"/>
<path d="M19.533 10.9459L20.9994 4.43234L22.0279 4.67317L21.4974 6.28527C21.002 7.78509 20.5006 9.28491 20.0173 10.7864C19.923 11.0641 19.7996 11.1156 19.533 10.9459V10.9459ZM17.8772 14.7768C18.0324 14.1846 18.1866 13.637 18.3169 13.0833C18.4439 12.5464 18.6853 12.0433 19.0248 11.6083C19.2331 11.335 19.467 11.4438 19.7062 11.5029C19.9273 11.5569 19.983 11.7189 19.9924 11.9315C20.0273 12.5192 19.8483 13.0998 19.4885 13.5658C19.0601 14.0969 18.5064 14.513 17.8772 14.7768V14.7768Z" fill="#ED95D6"/>
<path d="M23.9888 0.766798C24.0016 0.575922 23.9967 0.384273 23.9742 0.194295C23.9565 0.141229 23.9215 0.0956499 23.8748 0.0648816C23.8367 0.0339459 23.7922 0.0119762 23.7445 0.00060347C23.7171 -0.00453878 23.6785 0.0237435 23.6417 0.0640244C23.606 0.102265 23.5757 0.145234 23.5517 0.191724C23.53 0.273911 23.5254 0.359644 23.538 0.443694V4.27638C22.4047 4.35682 21.2714 4.11937 20.2658 3.59075C19.937 3.44214 19.6756 3.17604 19.5329 2.84465C19.3902 2.51326 19.3765 2.14051 19.4944 1.79953C19.6221 1.31702 19.7636 0.83879 19.9093 0.361418C19.9435 0.247431 19.9632 0.130017 19.9093 0.0631674C19.8792 0.0306246 19.8378 0.0109682 19.7936 0.00831689C19.7369 0.00892754 19.6821 0.0282084 19.6376 0.0631674C19.5735 0.101503 19.5224 0.158244 19.491 0.226005C19.3196 0.74023 19.1688 1.2596 19.0376 1.78411C18.9881 1.9908 18.9748 2.2045 18.9982 2.41575C19.0314 2.79796 19.1735 3.16264 19.4078 3.46647C19.642 3.77031 19.9586 4.00054 20.3198 4.12983C20.4818 4.19753 20.5769 4.26438 20.5315 4.47779C20.4689 4.74861 20.408 5.01944 20.3463 5.29112C19.9264 7.13204 19.5087 8.97382 19.0933 10.8165C19.0816 10.8986 19.0455 10.9754 18.9896 11.0367C18.7159 11.2543 18.4858 11.5219 18.3117 11.8252C18.0899 12.2255 17.9363 12.66 17.8575 13.1108C17.8424 13.2546 17.7904 13.392 17.7066 13.5099C17.6229 13.6277 17.5101 13.722 17.3793 13.7835C17.0219 13.9644 16.6936 14.1983 16.2968 14.4417C16.3233 13.9646 16.3181 13.4861 16.2814 13.0096C16.2512 12.863 16.2576 12.7113 16.3001 12.5678C16.3425 12.4243 16.4197 12.2934 16.5248 12.1869C17.0475 11.669 17.4201 11.0192 17.603 10.3065C17.6576 10.1413 17.6725 9.96557 17.6467 9.79351C17.6208 9.62144 17.5548 9.45788 17.454 9.31604C17.3532 9.1742 17.2205 9.05807 17.0665 8.97703C16.9125 8.89599 16.7416 8.85232 16.5676 8.84955C16.286 8.84641 16.0094 8.92501 15.7715 9.07581C14.9537 9.63426 14.1501 10.2132 13.3615 10.8122C12.8927 11.1653 12.4513 11.5561 11.997 11.9263C11.9775 11.9053 11.9605 11.882 11.9465 11.8569C11.9378 11.7938 11.9208 11.7321 11.8959 11.6735C11.5162 11.0873 11.7794 10.6613 12.1916 10.2234C12.6211 9.7732 12.8584 9.17347 12.8532 8.5513C12.8665 8.2343 12.7673 7.92281 12.573 7.67198C12.4695 7.54465 12.3419 7.43894 12.1976 7.36087C11.9926 7.24867 11.7582 7.20183 11.5258 7.22665C11.2934 7.25147 11.0742 7.34675 10.8975 7.49971L10.6583 7.67112C10.1124 8.06193 9.55962 8.44246 9.03425 8.86069C8.26729 9.47303 7.51683 10.1058 6.78366 10.7582C6.44085 11.0607 6.19059 11.4738 5.83492 11.7549C3.98028 13.2196 2.10593 14.6577 0.23844 16.1053C0.174226 16.1436 0.115182 16.1899 0.062747 16.2432C0.0573491 16.251 0.0527548 16.2594 0.0490343 16.2681C0.00961041 16.3598 -0.0238141 16.5115 0.0224661 16.5672C0.0338107 16.5793 0.047522 16.5889 0.062747 16.5955C0.144387 16.6294 0.235247 16.6339 0.319859 16.6083C0.43197 16.5502 0.534799 16.4757 0.624966 16.3872L5.85292 12.3351C5.94633 12.2623 6.04489 12.1963 6.15888 12.114C6.18953 12.4555 6.31615 12.7814 6.52411 13.0541C6.73208 13.3267 7.01292 13.5349 7.3342 13.6547C7.65547 13.7746 8.00409 13.8011 8.33979 13.7312C8.67549 13.6613 8.98458 13.4979 9.23137 13.2599C9.8313 12.6822 10.4509 12.1217 11.062 11.5535L11.2848 11.3444C11.6585 12.0755 11.6208 12.2683 11.0466 12.7285C7.51786 15.5522 3.99171 18.3764 0.468128 21.2012C0.318145 21.3212 0.0216091 21.4301 0.216158 21.6855C0.410706 21.9409 0.589827 21.6777 0.738953 21.5586C4.04485 18.9184 7.34845 16.2747 10.6498 13.6276C10.7355 13.559 10.8255 13.4981 10.9497 13.4073V13.685C10.9329 14.0058 11.012 14.3244 11.1768 14.6002C11.3416 14.876 11.5848 15.0965 11.8753 15.2337C12.1601 15.3783 12.4835 15.429 12.7988 15.3783C13.1142 15.3277 13.4054 15.1783 13.6306 14.9517C14.3102 14.3518 14.983 13.7398 15.6592 13.1348C15.702 13.0962 15.7517 13.0671 15.8306 13.0071C15.9273 13.5961 15.9084 14.1984 15.7749 14.7803C15.7419 14.8576 15.6879 14.9242 15.6189 14.9723C15.0601 15.4551 14.4993 15.9359 13.9365 16.4147L5.68151 23.4218C5.58486 23.4863 5.49945 23.5662 5.42868 23.6584C5.4061 23.7004 5.39343 23.747 5.39165 23.7947C5.38987 23.8424 5.39902 23.8899 5.4184 23.9335C5.45712 23.9625 5.50189 23.9824 5.54937 23.9918C5.59684 24.0011 5.64582 23.9996 5.69265 23.9875C5.72961 23.9767 5.76362 23.9577 5.79207 23.9318C5.83492 23.8975 5.87777 23.8538 5.91634 23.8186L11.8839 18.7621C12.171 18.5187 12.4607 18.2787 12.7632 18.025C12.7786 18.0658 12.7909 18.1076 12.8001 18.1502C12.8172 18.481 12.9311 18.7995 13.1277 19.0661C13.3242 19.3327 13.5947 19.5358 13.9057 19.65C14.2128 19.7834 14.5532 19.8205 14.8819 19.7564C15.2106 19.6923 15.5121 19.53 15.7466 19.2909C16.1443 18.9284 16.5368 18.5598 16.931 18.193C17.1881 17.9573 17.4367 17.7208 17.7075 17.4662C17.758 17.6422 17.7989 17.8207 17.8301 18.001C17.8695 18.4208 17.8116 18.844 17.6608 19.2377C17.5101 19.6315 17.2706 19.9852 16.961 20.2713C15.9677 21.3409 14.9521 22.3874 13.9451 23.4424C13.8791 23.511 13.7883 23.5675 13.7523 23.6489C13.7163 23.7304 13.6931 23.8898 13.736 23.924L13.748 23.9318C13.8378 23.9755 13.9389 23.9907 14.0377 23.9755C14.0653 23.9698 14.09 23.9543 14.1071 23.9318C14.1311 23.9069 14.1542 23.8761 14.1774 23.8529C14.9933 23.0096 15.8135 22.1705 16.6234 21.3212C16.9503 20.99 17.2576 20.64 17.5438 20.2731C17.917 19.8599 18.1645 19.3488 18.2571 18.7998C18.3497 18.2508 18.2836 17.6867 18.0666 17.174C18.0433 17.0597 18.0661 16.9408 18.13 16.8432C18.1857 16.7472 18.2474 16.6538 18.3109 16.5612C18.5138 16.2977 18.6828 16.0098 18.814 15.7042C19.0674 14.9541 19.4563 14.2569 19.9615 13.6473C20.1938 13.3528 20.3536 13.0079 20.428 12.6403C20.5024 12.2728 20.4894 11.8928 20.3901 11.5312C20.3549 11.3937 20.3549 11.2496 20.3901 11.1121C20.8237 9.76916 21.2702 8.43046 21.7125 7.0909L22.3038 5.29626L22.4864 4.74176C22.8755 4.74176 23.2423 4.73404 23.6074 4.74176C23.9108 4.75033 24.0033 4.60806 23.9999 4.31323C23.9819 3.13052 23.9888 1.94866 23.9888 0.766798ZM8.78743 13.0276C8.59581 13.205 8.35294 13.3171 8.09366 13.3479C7.83437 13.3787 7.572 13.3266 7.34417 13.199C7.1174 13.1022 6.9262 12.9374 6.79683 12.7275C6.66747 12.5176 6.60628 12.2727 6.62168 12.0266C6.64913 11.7243 6.77463 11.4393 6.97907 11.215C8.30777 9.94803 9.74736 8.80273 11.2806 7.79282C11.3642 7.73366 11.4594 7.69278 11.56 7.67284C11.6274 7.6604 11.6965 7.6604 11.7639 7.67284C11.8447 7.68856 11.9217 7.71938 11.991 7.76368C12.1312 7.85069 12.2445 7.97484 12.3183 8.12235C12.3921 8.26987 12.4236 8.43496 12.4093 8.5993C12.3915 9.02719 12.2418 9.43911 11.9808 9.77859C11.0474 10.9831 9.97559 12.0736 8.78743 13.0276ZM13.244 14.6809C13.095 14.8341 12.8993 14.9334 12.6877 14.9632C12.4761 14.993 12.2605 14.9515 12.075 14.8454C11.8798 14.7439 11.7136 14.5943 11.5921 14.4108C11.4707 14.2273 11.3979 14.0158 11.3808 13.7964C11.3609 13.607 11.3853 13.4155 11.4519 13.237C11.5185 13.0586 11.6256 12.898 11.7648 12.7679C13.0658 11.568 14.4616 10.4752 15.9386 9.50005C15.9831 9.47176 16.0243 9.44348 16.0731 9.41434C16.2021 9.3212 16.3585 9.2736 16.5175 9.27903C16.6765 9.28446 16.8292 9.34262 16.9516 9.44434C17.07 9.54463 17.1538 9.67969 17.191 9.83032C17.2282 9.98095 17.217 10.1395 17.159 10.2834C16.9721 10.9058 16.6273 11.4691 16.158 11.9186C15.2127 12.8631 14.2296 13.7724 13.2458 14.6774L13.244 14.6809ZM18.31 15.7444C17.7635 16.6627 17.0793 17.4917 16.2814 18.2024C15.9774 18.4956 15.6618 18.7758 15.3344 19.0432C15.161 19.1871 14.9525 19.2823 14.7302 19.3192C14.508 19.356 14.2799 19.3332 14.0694 19.253C13.8588 19.1728 13.6734 19.0381 13.532 18.8627C13.3906 18.6873 13.2983 18.4775 13.2646 18.2547C13.2509 18.1309 13.2618 18.0055 13.2968 17.8859C13.3318 17.7663 13.3902 17.6548 13.4686 17.5579C14.6349 16.2915 15.9677 15.1892 17.4307 14.2815C17.4485 14.2746 17.4673 14.2708 17.4864 14.2703L17.5721 14.356C17.3321 14.6132 17.0853 14.8583 16.8548 15.1214C16.7854 15.2231 16.7279 15.3323 16.6833 15.4471C16.8102 15.4848 16.9585 15.5842 17.0613 15.549C17.4753 15.4102 17.8823 15.2491 18.3186 15.0777L18.6708 14.9405C18.5388 15.2319 18.4446 15.4976 18.3117 15.741L18.31 15.7444ZM19.4867 13.5718C19.167 13.9788 18.7664 14.315 18.31 14.5592C18.1689 14.638 18.024 14.7117 17.8755 14.7803C18.028 14.1966 18.1806 13.6558 18.31 13.109L18.3152 13.0868C18.4421 12.5499 18.6836 12.0467 19.0231 11.6118C19.2313 11.3384 19.4653 11.4472 19.7044 11.5064C19.9255 11.5604 19.9812 11.7224 19.9907 11.9349C20.0258 12.5222 19.8474 13.1023 19.4884 13.5684L19.4867 13.5718ZM21.4922 6.287C20.9968 7.78682 20.4955 9.28664 20.0121 10.7882C19.9213 11.0701 19.7978 11.1216 19.5313 10.9519L20.8023 5.3014L20.9977 4.43408L22.0261 4.67491L21.8196 5.3014L21.4922 6.287Z" fill="black"/>
</svg>
